<mxfile host="app.diagrams.net" modified="2024-02-22T13:34:09.001Z" agent="Mozilla/5.0 (Windows NT 10.0; Win64; x64; rv:124.0) Gecko/20100101 Firefox/124.0" etag="DC7tEmOlIG8V4m2tDiK9" version="23.1.5" type="device">
  <diagram name="P치gina-1" id="lbi4iF0RO1f9NUFONs0d">
    <mxGraphModel dx="1434" dy="1989" grid="1" gridSize="10" guides="1" tooltips="1" connect="1" arrows="1" fold="1" page="1" pageScale="1" pageWidth="827" pageHeight="1169" math="0" shadow="0">
      <root>
        <mxCell id="0" />
        <mxCell id="1" parent="0" />
        <mxCell id="OIFktgtY4Z5cK-gP_005-1" value="&lt;font style=&quot;font-size: 18px;&quot;&gt;C칩digo:&lt;/font&gt;&lt;br&gt;&lt;br&gt;&lt;font style=&quot;font-size: 18px;&quot;&gt;1 if (a &amp;gt; 5 and b &amp;gt; 5 and c &amp;lt; 2) then&lt;br&gt;2 x = x + 1&lt;br&gt;3 else&lt;br&gt;4 x = x - 1&lt;br&gt;5 end&lt;br&gt;&lt;/font&gt;" style="text;html=1;spacing=5;spacingTop=-20;whiteSpace=wrap;overflow=hidden;rounded=0;" vertex="1" parent="1">
          <mxGeometry width="300" height="200" as="geometry" />
        </mxCell>
        <mxCell id="OIFktgtY4Z5cK-gP_005-2" value="" style="ellipse;whiteSpace=wrap;html=1;aspect=fixed;" vertex="1" parent="1">
          <mxGeometry x="140" y="200" width="80" height="80" as="geometry" />
        </mxCell>
        <mxCell id="OIFktgtY4Z5cK-gP_005-3" value="1" style="text;html=1;align=center;verticalAlign=middle;whiteSpace=wrap;rounded=0;" vertex="1" parent="1">
          <mxGeometry x="150" y="225" width="60" height="30" as="geometry" />
        </mxCell>
        <mxCell id="OIFktgtY4Z5cK-gP_005-4" value="" style="ellipse;whiteSpace=wrap;html=1;aspect=fixed;" vertex="1" parent="1">
          <mxGeometry x="270" y="320" width="80" height="80" as="geometry" />
        </mxCell>
        <mxCell id="OIFktgtY4Z5cK-gP_005-5" value="" style="ellipse;whiteSpace=wrap;html=1;aspect=fixed;" vertex="1" parent="1">
          <mxGeometry x="20" y="320" width="80" height="80" as="geometry" />
        </mxCell>
        <mxCell id="OIFktgtY4Z5cK-gP_005-6" value="2" style="text;html=1;align=center;verticalAlign=middle;whiteSpace=wrap;rounded=0;" vertex="1" parent="1">
          <mxGeometry x="280" y="345" width="60" height="30" as="geometry" />
        </mxCell>
        <mxCell id="OIFktgtY4Z5cK-gP_005-7" value="3,4" style="text;html=1;align=center;verticalAlign=middle;whiteSpace=wrap;rounded=0;" vertex="1" parent="1">
          <mxGeometry x="30" y="345" width="60" height="30" as="geometry" />
        </mxCell>
        <mxCell id="OIFktgtY4Z5cK-gP_005-8" value="" style="endArrow=classic;html=1;rounded=0;entryX=0;entryY=0;entryDx=0;entryDy=0;exitX=1;exitY=1;exitDx=0;exitDy=0;" edge="1" parent="1" source="OIFktgtY4Z5cK-gP_005-2" target="OIFktgtY4Z5cK-gP_005-4">
          <mxGeometry width="50" height="50" relative="1" as="geometry">
            <mxPoint x="210" y="430" as="sourcePoint" />
            <mxPoint x="271.71572875253787" y="331.71572875253787" as="targetPoint" />
          </mxGeometry>
        </mxCell>
        <mxCell id="OIFktgtY4Z5cK-gP_005-9" value="" style="endArrow=classic;html=1;rounded=0;exitX=0.163;exitY=0.95;exitDx=0;exitDy=0;exitPerimeter=0;" edge="1" parent="1" source="OIFktgtY4Z5cK-gP_005-2">
          <mxGeometry width="50" height="50" relative="1" as="geometry">
            <mxPoint x="210" y="430" as="sourcePoint" />
            <mxPoint x="90" y="330" as="targetPoint" />
          </mxGeometry>
        </mxCell>
        <mxCell id="OIFktgtY4Z5cK-gP_005-10" value="TRUE a&amp;gt;5 and b&amp;gt;5 and c&amp;lt;2" style="text;html=1;align=center;verticalAlign=middle;whiteSpace=wrap;rounded=0;" vertex="1" parent="1">
          <mxGeometry x="240" y="270" width="170" height="30" as="geometry" />
        </mxCell>
        <mxCell id="OIFktgtY4Z5cK-gP_005-11" value="FALSE" style="text;html=1;align=center;verticalAlign=middle;whiteSpace=wrap;rounded=0;" vertex="1" parent="1">
          <mxGeometry x="60" y="270" width="60" height="30" as="geometry" />
        </mxCell>
        <mxCell id="OIFktgtY4Z5cK-gP_005-12" value="" style="ellipse;whiteSpace=wrap;html=1;aspect=fixed;" vertex="1" parent="1">
          <mxGeometry x="140" y="440" width="80" height="80" as="geometry" />
        </mxCell>
        <mxCell id="OIFktgtY4Z5cK-gP_005-13" value="" style="endArrow=classic;html=1;rounded=0;exitX=0;exitY=1;exitDx=0;exitDy=0;entryX=1;entryY=0;entryDx=0;entryDy=0;" edge="1" parent="1" source="OIFktgtY4Z5cK-gP_005-4" target="OIFktgtY4Z5cK-gP_005-12">
          <mxGeometry width="50" height="50" relative="1" as="geometry">
            <mxPoint x="271.71572875253787" y="388.28427124746213" as="sourcePoint" />
            <mxPoint x="210" y="390" as="targetPoint" />
          </mxGeometry>
        </mxCell>
        <mxCell id="OIFktgtY4Z5cK-gP_005-14" value="" style="endArrow=classic;html=1;rounded=0;exitX=1;exitY=1;exitDx=0;exitDy=0;entryX=0;entryY=0;entryDx=0;entryDy=0;" edge="1" parent="1" source="OIFktgtY4Z5cK-gP_005-5" target="OIFktgtY4Z5cK-gP_005-12">
          <mxGeometry width="50" height="50" relative="1" as="geometry">
            <mxPoint x="330" y="430" as="sourcePoint" />
            <mxPoint x="380" y="380" as="targetPoint" />
          </mxGeometry>
        </mxCell>
        <mxCell id="OIFktgtY4Z5cK-gP_005-15" value="5" style="text;html=1;align=center;verticalAlign=middle;whiteSpace=wrap;rounded=0;" vertex="1" parent="1">
          <mxGeometry x="150" y="465" width="60" height="30" as="geometry" />
        </mxCell>
        <mxCell id="OIFktgtY4Z5cK-gP_005-16" value="&lt;font style=&quot;font-size: 18px;&quot;&gt;Complejidad Ciclom치tica:&lt;br&gt;&lt;br&gt;&lt;/font&gt;&lt;font style=&quot;font-size: 18px;&quot;&gt;V(G) = A-N+2 = 2, Hay 4 Aristas y 4 Nodos&lt;br&gt;&lt;br&gt;칩&lt;br&gt;&lt;br&gt;V(G) = nps + 1 = 2, Hay 1 Nodos con Dos Aristas&lt;br&gt;&lt;br&gt;Programa Simple Sin Mucho Riesgo.&lt;/font&gt;" style="text;html=1;spacing=5;spacingTop=-20;whiteSpace=wrap;overflow=hidden;rounded=0;" vertex="1" parent="1">
          <mxGeometry x="440" y="240" width="410" height="290" as="geometry" />
        </mxCell>
      </root>
    </mxGraphModel>
  </diagram>
</mxfile>
